<svg xmlns="http://www.w3.org/2000/svg" width="238.663" height="29.079" viewBox="0 0 238.663 29.079">
  <g id="type" transform="translate(-3 -2.98)">
    <g id="Group_25417" data-name="Group 25417">
      <path id="type_PathItem_" data-name="type &lt;PathItem&gt;" d="M72.058,32.143l5.07-14.634a8.835,8.835,0,0,0-6.793-3.2H65.288a1.3,1.3,0,0,1-1.2-1.378,1.4,1.4,0,0,1,1.335-1.448h13.8L81.805,4H65.432A8.9,8.9,0,0,0,56.6,12.928a9,9,0,0,0,8.825,9h4.909a1.394,1.394,0,0,1,0,2.776H52.09v7.612H70.335a8.68,8.68,0,0,0,1.724-.171Z" transform="translate(-30.033 -0.624)" fill="#002663"/>
      <path id="type_PathItem_2" data-name="type &lt;PathItem&gt;" d="M25.786,3.92H3v7.5H9.987V32.2h7.632V11.416h4.724a13.128,13.128,0,0,1,3.443-7.5Z" transform="translate(0 -0.575)" fill="#002663"/>
      <path id="type_CompoundPathItem_" data-name="type &lt;CompoundPathItem&gt;" d="M596.851,4.543h-1.623v4.5h-.66v-4.5H592.95V4h3.9Z" transform="translate(-360.941 -0.624)" fill="#fff"/>
      <path id="type_CompoundPathItem_2" data-name="type &lt;CompoundPathItem&gt;" d="M605.748,4l1.65,4.111L609.047,4h.862V9.046h-.668V7.078l.062-2.119L607.65,9.046h-.509l-1.654-4.08.066,2.112V9.046h-.664V4Z" transform="translate(-368.246 -0.624)" fill="#fff"/>
    </g>
    <g id="Group_25418" data-name="Group 25418">
      <path id="type_CompoundPathItem_3" data-name="type &lt;CompoundPathItem&gt;" d="M159.34,4h10.232l7.042,16.032h.353L184.009,4h10.236V32.31H186.2V15.94h-.237l-6.743,16.148h-4.852L167.62,15.832h-.237V32.31H159.34Z" transform="translate(-95.652 -0.624)" fill="#0068ff"/>
      <path id="type_CompoundPathItem_4" data-name="type &lt;CompoundPathItem&gt;" d="M276.653,32.31h8.874L275.527,4H264.29l-10,28.31h8.874l1.751-5.435H274.9Zm-9.879-11.172,3.016-9.344h.237l3.02,9.344Z" transform="translate(-153.744 -0.624)" fill="#0068ff"/>
      <path id="type_CompoundPathItem_5" data-name="type &lt;CompoundPathItem&gt;" d="M353.126,12.719a3.746,3.746,0,0,0-.606-1.293,3.9,3.9,0,0,0-1.029-.955,4.845,4.845,0,0,0-1.421-.594,7.376,7.376,0,0,0-1.766-.2,6.44,6.44,0,0,0-3.529.928,5.823,5.823,0,0,0-2.217,2.667,10.442,10.442,0,0,0-.776,4.2,11.258,11.258,0,0,0,.726,4.27,5.757,5.757,0,0,0,2.158,2.717,6.4,6.4,0,0,0,3.567.939,8.272,8.272,0,0,0,3.125-.512,3.723,3.723,0,0,0,2.492-3.664l1.421.14h-6.91V15.871h13.431V19.8a11.908,11.908,0,0,1-1.755,6.6,11.4,11.4,0,0,1-4.821,4.2,16.226,16.226,0,0,1-7.034,1.456,16.439,16.439,0,0,1-7.764-1.755,12.7,12.7,0,0,1-5.213-5,15.229,15.229,0,0,1-1.871-7.729,15.822,15.822,0,0,1,1.165-6.211,13.062,13.062,0,0,1,3.187-4.584,13.908,13.908,0,0,1,4.72-2.834,17.81,17.81,0,0,1,10.745-.248A13.769,13.769,0,0,1,357.23,5.7a10.911,10.911,0,0,1,2.876,3.105,9.316,9.316,0,0,1,1.331,3.913Z" transform="translate(-202.105)" fill="#0068ff"/>
      <path id="type_CompoundPathItem_6" data-name="type &lt;CompoundPathItem&gt;" d="M424.722,4V32.31H416.5V4Z" transform="translate(-252.986 -0.624)" fill="#0068ff"/>
      <path id="type_CompoundPathItem_7" data-name="type &lt;CompoundPathItem&gt;" d="M475.106,4V32.31h-6.859L457.3,17.435h-.179V32.31H448.9V4h6.987l10.768,14.817h.237V4Z" transform="translate(-272.809 -0.624)" fill="#0068ff"/>
      <path id="type_CompoundPathItem_8" data-name="type &lt;CompoundPathItem&gt;" d="M527.63,32.31V4h21.831v6.211H535.875v4.845h12.472v6.211H535.856v4.86H549.4v6.211Z" transform="translate(-320.979 -0.624)" fill="#0068ff"/>
      <path id="type_PathItem_3" data-name="type &lt;PathItem&gt;" d="M132.1,4,126.82,19.267V32.306h8.222V4Z" transform="translate(-75.756 -0.624)" fill="#0068ff"/>
    </g>
  </g>
</svg>
